<svg xmlns="http://www.w3.org/2000/svg" viewBox="0 0 100 100"><defs><style>.cls-1,.cls-2,.cls-6{fill:#9f2241;}.cls-1{opacity:0.8;}.cls-3,.cls-5,.cls-8{fill:#fff;}.cls-4,.cls-7,.cls-9{fill:none;}.cls-4,.cls-5,.cls-7,.cls-8,.cls-9{stroke:#fff;}.cls-4,.cls-5,.cls-7{stroke-miterlimit:10;}.cls-4,.cls-5{stroke-width:0.5px;}.cls-6{fill-opacity:0.7;}.cls-7,.cls-8,.cls-9{stroke-linecap:round;stroke-width:2px;}.cls-8,.cls-9{stroke-linejoin:round;}</style></defs><g id="Capa_2" data-name="Capa 2"><g id="Permisos"><rect class="cls-1" x="2.5" y="2.5" width="95" height="95" rx="14.5"/><path class="cls-2" d="M83,5A12,12,0,0,1,95,17V83A12,12,0,0,1,83,95H17A12,12,0,0,1,5,83V17A12,12,0,0,1,17,5H83m0-5H17A17,17,0,0,0,0,17V83a17,17,0,0,0,17,17H83a17,17,0,0,0,17-17V17A17,17,0,0,0,83,0Z"/><path class="cls-3" d="M80.7,68.12H62.14a2.47,2.47,0,0,0-2.65,2.25V83.86a2.48,2.48,0,0,0,2.65,2.25H80.7a2.49,2.49,0,0,0,2.65-2.25V70.37A2.47,2.47,0,0,0,80.7,68.12Zm0,15.74H62.14V72.62H80.7Z"/><circle class="cls-4" cx="70.99" cy="78.31" r="3.32"/><path class="cls-5" d="M71.26,79.7h0a.5.5,0,0,1-.35-.27l-.93-2a.47.47,0,0,1,.23-.61.45.45,0,0,1,.61.23l.65,1.4,2.89-3a.47.47,0,0,1,.66,0A.46.46,0,0,1,75,76l-3.36,3.53A.49.49,0,0,1,71.26,79.7Z"/><rect class="cls-6" x="61.53" y="70.08" width="1.17" height="1.17"/><polygon class="cls-6" points="64.41 71.25 63.76 71.25 64.08 70.69 64.41 70.13 64.73 70.69 65.05 71.25 64.41 71.25"/><path class="cls-3" d="M38.56,68.12H20a2.47,2.47,0,0,0-2.65,2.25V83.86A2.48,2.48,0,0,0,20,86.11H38.56a2.48,2.48,0,0,0,2.65-2.25V70.37A2.47,2.47,0,0,0,38.56,68.12Zm0,15.74H20V72.62H38.56Z"/><circle class="cls-4" cx="28.86" cy="78.31" r="3.32"/><path class="cls-5" d="M29.13,79.7h0a.47.47,0,0,1-.34-.27l-.93-2a.46.46,0,1,1,.84-.38l.64,1.4,2.9-3a.46.46,0,0,1,.65,0,.45.45,0,0,1,0,.65l-3.37,3.53A.46.46,0,0,1,29.13,79.7Z"/><rect class="cls-6" x="19.4" y="70.08" width="1.17" height="1.17"/><polygon class="cls-6" points="22.27 71.25 21.63 71.25 21.95 70.69 22.27 70.13 22.59 70.69 22.92 71.25 22.27 71.25"/><path class="cls-7" d="M39,47.06a19.1,19.1,0,1,1,22.73,0"/><path class="cls-8" d="M61.73,47c0-.45.06-.91.06-1.37,0-6.22-3.63-11.45-8.53-12.95l0,0a6.37,6.37,0,1,0-5.71,0h.09c-5,1.45-8.64,6.71-8.64,13,0,.49,0,1,.07,1.46l0,0a19.1,19.1,0,0,0,22.73,0"/><line class="cls-9" x1="50.38" y1="31.37" x2="50.38" y2="56.46"/><line class="cls-9" x1="29.31" y1="68.63" x2="50.38" y2="56.46"/><line class="cls-9" x1="71.46" y1="68.63" x2="50.38" y2="56.46"/></g></g></svg>