<svg xmlns="http://www.w3.org/2000/svg" viewBox="0 0 100 100"><defs><style>.cls-1,.cls-10,.cls-2{fill:#9f2241;}.cls-1{opacity:0.8;}.cls-3,.cls-4,.cls-5,.cls-6,.cls-8{fill:none;}.cls-3,.cls-4,.cls-5,.cls-6,.cls-8,.cls-9{stroke:#fff;}.cls-3,.cls-6{stroke-linecap:round;}.cls-3{stroke-linejoin:round;}.cls-3,.cls-4,.cls-5,.cls-6{stroke-width:2px;}.cls-4,.cls-6{stroke-miterlimit:1;}.cls-5{stroke-linecap:square;stroke-miterlimit:2;}.cls-7,.cls-9{fill:#fff;}.cls-8,.cls-9{stroke-miterlimit:10;stroke-width:0.5px;}.cls-10{fill-opacity:0.7;}</style></defs><g id="Capa_2" data-name="Capa 2"><g id="Permisos"><rect class="cls-1" x="2.5" y="2.5" width="95" height="95" rx="14.5"/><path class="cls-2" d="M83,5A12,12,0,0,1,95,17V83A12,12,0,0,1,83,95H17A12,12,0,0,1,5,83V17A12,12,0,0,1,17,5H83m0-5H17A17,17,0,0,0,0,17V83a17,17,0,0,0,17,17H83a17,17,0,0,0,17-17V17A17,17,0,0,0,83,0Z"/><line class="cls-3" x1="50.38" y1="52.05" x2="50.38" y2="56.46"/><line class="cls-3" x1="29.31" y1="68.63" x2="50.38" y2="56.46"/><line class="cls-3" x1="71.46" y1="68.63" x2="50.38" y2="56.46"/><path class="cls-4" d="M55.8,30.12V22.55a5.43,5.43,0,0,0-5.42-5.42h0A5.43,5.43,0,0,0,45,22.55v7.57"/><path class="cls-4" d="M59.42,30.12V22.77a9.06,9.06,0,0,0-9-9h0a9.06,9.06,0,0,0-9,9v7.35"/><path class="cls-5" d="M62.53,30H38.23v10a12.11,12.11,0,0,0,12.15,12h0a12.11,12.11,0,0,0,12.15-12V30.17"/><circle class="cls-4" cx="50.38" cy="36.64" r="2.62"/><line class="cls-6" x1="50.38" y1="45.03" x2="50.38" y2="39.26"/><path class="cls-7" d="M80.34,68.27H61.79a2.47,2.47,0,0,0-2.65,2.25V84a2.47,2.47,0,0,0,2.65,2.24H80.34A2.48,2.48,0,0,0,83,84V70.52A2.47,2.47,0,0,0,80.34,68.27Zm0,15.74H61.79V72.76H80.34Z"/><circle class="cls-8" cx="70.64" cy="78.45" r="3.32"/><path class="cls-9" d="M70.91,79.84h0a.44.44,0,0,1-.34-.26l-.93-2a.46.46,0,0,1,.23-.62.47.47,0,0,1,.61.23l.65,1.4,2.89-3a.46.46,0,1,1,.67.64L71.32,79.7A.46.46,0,0,1,70.91,79.84Z"/><rect class="cls-10" x="61.18" y="70.22" width="1.17" height="1.17"/><polygon class="cls-10" points="64.05 71.4 63.41 71.4 63.73 70.84 64.05 70.28 64.38 70.84 64.7 71.4 64.05 71.4"/><path class="cls-7" d="M38.21,68.27H19.66A2.47,2.47,0,0,0,17,70.52V84a2.46,2.46,0,0,0,2.65,2.24H38.21A2.48,2.48,0,0,0,40.86,84V70.52A2.47,2.47,0,0,0,38.21,68.27Zm0,15.74H19.66V72.76H38.21Z"/><circle class="cls-8" cx="28.51" cy="78.45" r="3.32"/><path class="cls-9" d="M28.77,79.84h0a.44.44,0,0,1-.34-.26l-.93-2a.47.47,0,0,1,.22-.62.48.48,0,0,1,.62.23l.64,1.4,2.9-3a.46.46,0,0,1,.65,0,.47.47,0,0,1,0,.66L29.18,79.7A.45.45,0,0,1,28.77,79.84Z"/><rect class="cls-10" x="19.05" y="70.22" width="1.17" height="1.17"/><polygon class="cls-10" points="21.92 71.4 21.27 71.4 21.6 70.84 21.92 70.28 22.24 70.84 22.57 71.4 21.92 71.4"/></g></g></svg>