<svg xmlns="http://www.w3.org/2000/svg" viewBox="0 0 100 100"><defs><style>.cls-1,.cls-2,.cls-5,.cls-9{fill:#9f2241;}.cls-1{opacity:0.8;}.cls-3,.cls-7{fill:none;}.cls-3,.cls-4,.cls-5,.cls-7,.cls-8{stroke:#fff;}.cls-3{stroke-linecap:round;stroke-linejoin:round;stroke-width:2px;}.cls-4,.cls-6,.cls-8{fill:#fff;}.cls-4,.cls-5,.cls-7,.cls-8{stroke-miterlimit:10;}.cls-5{fill-opacity:0.8;}.cls-7,.cls-8{stroke-width:0.5px;}.cls-9{fill-opacity:0.7;}</style></defs><g id="Capa_2" data-name="Capa 2"><g id="Permisos"><rect class="cls-1" x="2.5" y="2.5" width="95" height="95" rx="14.5"/><path class="cls-2" d="M83,5A12,12,0,0,1,95,17V83A12,12,0,0,1,83,95H17A12,12,0,0,1,5,83V17A12,12,0,0,1,17,5H83m0-5H17A17,17,0,0,0,0,17V83a17,17,0,0,0,17,17H83a17,17,0,0,0,17-17V17A17,17,0,0,0,83,0Z"/><line class="cls-3" x1="50.38" y1="45.04" x2="50.38" y2="56.46"/><line class="cls-3" x1="29.31" y1="68.63" x2="50.38" y2="56.46"/><line class="cls-3" x1="71.46" y1="68.63" x2="50.38" y2="56.46"/><path class="cls-4" d="M33.25,37.58c0,3,3.25,6.1,7.22,6.1H61.21l0-6.1H76.78V42.1A10.52,10.52,0,0,1,66.17,52.47H35.7c-5.84,0-7-.56-9-5.72l-3.75-9.17Z"/><rect class="cls-4" x="61.33" y="24.76" width="12.96" height="8.35"/><rect class="cls-4" x="63.08" y="15.57" width="3.04" height="9.19"/><rect class="cls-4" x="69.16" y="20.71" width="2.43" height="4.05"/><rect class="cls-4" x="58.99" y="24.76" width="1.65" height="1.65"/><rect class="cls-4" x="47.9" y="32.64" width="7.42" height="7.42"/><rect class="cls-4" x="42.38" y="22.15" width="7.42" height="7.42"/><path class="cls-4" d="M37,32.64h7.42a0,0,0,0,1,0,0v7.42a0,0,0,0,1,0,0h-3A4.38,4.38,0,0,1,37,35.68v-3A0,0,0,0,1,37,32.64Z"/><rect class="cls-4" x="24.54" y="49.53" width="52.56" height="2.94"/><rect class="cls-5" x="28.74" y="38.6" width="3.47" height="3.47"/><path class="cls-6" d="M80.41,68.27H61.86a2.47,2.47,0,0,0-2.65,2.25V84a2.46,2.46,0,0,0,2.65,2.24H80.41A2.48,2.48,0,0,0,83.06,84V70.52A2.47,2.47,0,0,0,80.41,68.27Zm0,15.74H61.86V72.76H80.41Z"/><circle class="cls-7" cx="70.71" cy="78.45" r="3.32"/><path class="cls-8" d="M71,79.84h0a.44.44,0,0,1-.34-.26l-.93-2a.47.47,0,0,1,.22-.62.48.48,0,0,1,.62.23l.64,1.4,2.9-3a.46.46,0,0,1,.65,0,.47.47,0,0,1,0,.66L71.38,79.7A.45.45,0,0,1,71,79.84Z"/><rect class="cls-9" x="61.25" y="70.22" width="1.17" height="1.17"/><polygon class="cls-9" points="64.12 71.4 63.47 71.4 63.8 70.84 64.12 70.28 64.44 70.84 64.77 71.4 64.12 71.4"/><path class="cls-6" d="M38.28,68.27H19.72a2.47,2.47,0,0,0-2.65,2.25V84a2.47,2.47,0,0,0,2.65,2.24H38.28A2.48,2.48,0,0,0,40.93,84V70.52A2.47,2.47,0,0,0,38.28,68.27Zm0,15.74H19.72V72.76H38.28Z"/><circle class="cls-7" cx="28.57" cy="78.45" r="3.32"/><path class="cls-8" d="M28.84,79.84h0a.47.47,0,0,1-.35-.26l-.93-2a.48.48,0,0,1,.23-.62.47.47,0,0,1,.61.23l.65,1.4,2.89-3a.46.46,0,1,1,.67.64L29.25,79.7A.46.46,0,0,1,28.84,79.84Z"/><rect class="cls-9" x="19.11" y="70.22" width="1.17" height="1.17"/><polygon class="cls-9" points="21.99 71.4 21.34 71.4 21.66 70.84 21.99 70.28 22.31 70.84 22.63 71.4 21.99 71.4"/></g></g></svg>