<svg xmlns="http://www.w3.org/2000/svg" viewBox="0 0 100 100"><defs><style>.cls-1{fill:#9f2241;}.cls-2{opacity:0.79;}.cls-10,.cls-3,.cls-5,.cls-7{fill:#fff;}.cls-3{stroke:#9f2241;}.cls-3,.cls-4,.cls-5,.cls-6,.cls-9{stroke-miterlimit:10;}.cls-3,.cls-4,.cls-5{stroke-width:0.5px;}.cls-11,.cls-4,.cls-6,.cls-8,.cls-9{fill:none;}.cls-11,.cls-4,.cls-5,.cls-6,.cls-7,.cls-8,.cls-9{stroke:#fff;}.cls-6,.cls-7,.cls-8{stroke-linecap:round;}.cls-7,.cls-8{stroke-linejoin:round;}.cls-11,.cls-8,.cls-9{stroke-width:0.75px;}.cls-11{stroke-miterlimit:1;}</style></defs><g id="Capa_2" data-name="Capa 2"><g id="Permisos"><rect class="cls-1" x="5" y="5" width="90" height="90" rx="12"/><g class="cls-2"><path class="cls-1" d="M83,5A12,12,0,0,1,95,17V83A12,12,0,0,1,83,95H17A12,12,0,0,1,5,83V17A12,12,0,0,1,17,5H83m0-5H17A17,17,0,0,0,0,17V83a17,17,0,0,0,17,17H83a17,17,0,0,0,17-17V17A17,17,0,0,0,83,0Z"/></g><path class="cls-3" d="M80.74,68.12H62.19a2.47,2.47,0,0,0-2.65,2.25V83.86a2.47,2.47,0,0,0,2.65,2.25H80.74a2.48,2.48,0,0,0,2.65-2.25V70.37A2.47,2.47,0,0,0,80.74,68.12Zm0,15.74H62.19V72.62H80.74Z"/><circle class="cls-4" cx="71.03" cy="78.31" r="3.32"/><path class="cls-5" d="M71.3,79.7h0a.47.47,0,0,1-.34-.27l-.93-2a.46.46,0,0,1,.22-.61.46.46,0,0,1,.62.23l.64,1.4,2.9-3a.46.46,0,0,1,.67.64l-3.37,3.53A.48.48,0,0,1,71.3,79.7Z"/><rect class="cls-1" x="61.57" y="70.08" width="1.17" height="1.17"/><polygon class="cls-1" points="64.45 71.25 63.8 71.25 64.13 70.69 64.45 70.13 64.77 70.69 65.09 71.25 64.45 71.25"/><path class="cls-3" d="M37,68.48H18.49a2.47,2.47,0,0,0-2.65,2.25V84.22a2.48,2.48,0,0,0,2.65,2.25H37a2.49,2.49,0,0,0,2.66-2.25V70.73A2.48,2.48,0,0,0,37,68.48Zm0,15.74H18.49V73H37Z"/><circle class="cls-4" cx="27.34" cy="78.67" r="3.32"/><path class="cls-5" d="M27.61,80.06h0a.49.49,0,0,1-.35-.27l-.93-2a.47.47,0,0,1,.23-.61.45.45,0,0,1,.61.23l.65,1.4,2.89-3a.47.47,0,0,1,.66,0,.46.46,0,0,1,0,.65L28,79.92A.49.49,0,0,1,27.61,80.06Z"/><rect class="cls-1" x="17.88" y="70.44" width="1.17" height="1.17"/><polygon class="cls-1" points="20.75 71.61 20.11 71.61 20.43 71.05 20.75 70.49 21.08 71.05 21.4 71.61 20.75 71.61"/><path class="cls-6" d="M41.25,60.79a13,13,0,1,1,15.52,0"/><path class="cls-7" d="M56.74,60.72c0-.31,0-.62,0-.94,0-4.25-2.47-7.82-5.82-8.84l0,0a4.35,4.35,0,1,0-3.89,0h.06c-3.39,1-5.9,4.58-5.9,8.86,0,.34,0,.67,0,1h0a13.06,13.06,0,0,0,15.52,0"/><line class="cls-8" x1="49" y1="31.6" x2="49" y2="55.94"/><line class="cls-8" x1="27.92" y1="68.86" x2="49" y2="56.69"/><line class="cls-8" x1="70.07" y1="68.86" x2="49" y2="56.69"/><line class="cls-9" x1="48.99" y1="35.05" x2="48.99" y2="14.06"/><circle class="cls-10" cx="48.99" cy="14.14" r="1.41"/><path class="cls-10" d="M50.59,14.14A1.6,1.6,0,1,1,49,12.55a1.6,1.6,0,0,1,1.6,1.59Zm-2.82,0A1.22,1.22,0,1,0,49,12.92a1.23,1.23,0,0,0-1.22,1.22Z"/><polyline class="cls-11" points="52.32 37.63 52.32 20.99 52.58 20.65 73.58 20.65"/><circle class="cls-10" cx="73.5" cy="20.65" r="1.41"/><path class="cls-10" d="M73.5,22.24a1.6,1.6,0,1,1,1.6-1.59,1.6,1.6,0,0,1-1.6,1.59Zm0-2.82a1.23,1.23,0,1,0,1.22,1.23,1.23,1.23,0,0,0-1.22-1.23Z"/><polyline class="cls-11" points="55.92 39.33 55.92 25.44 56.22 25.15 80.5 25.15"/><circle class="cls-10" cx="80.42" cy="25.15" r="1.41"/><path class="cls-10" d="M80.42,26.74a1.6,1.6,0,0,1,0-3.19,1.6,1.6,0,1,1,0,3.19Zm0-2.82a1.23,1.23,0,1,0,1.23,1.23,1.23,1.23,0,0,0-1.23-1.23Z"/><polyline class="cls-11" points="45.8 37.27 45.8 17.66 45.42 17.26 14.61 17.26"/><circle class="cls-10" cx="14.69" cy="17.26" r="1.41"/><path class="cls-10" d="M14.69,15.66a1.6,1.6,0,1,1-1.6,1.6,1.6,1.6,0,0,1,1.6-1.6Zm0,2.82a1.23,1.23,0,1,0-1.22-1.22,1.22,1.22,0,0,0,1.22,1.22Z"/><polyline class="cls-11" points="42.42 38.6 42.42 21.79 42.25 21.44 29.26 21.44"/><path class="cls-10" d="M29.34,20a1.41,1.41,0,1,0,1.41,1.41A1.41,1.41,0,0,0,29.34,20Z"/><path class="cls-10" d="M29.34,19.85a1.6,1.6,0,1,1-1.6,1.59,1.6,1.6,0,0,1,1.6-1.59Zm0,2.82a1.23,1.23,0,1,0-1.22-1.23,1.22,1.22,0,0,0,1.22,1.23Z"/></g></g></svg>