<svg xmlns="http://www.w3.org/2000/svg" viewBox="0 0 100 100"><defs><style>.cls-1{fill:#9f2241;}.cls-2,.cls-4,.cls-6{fill:#fff;}.cls-2{stroke:#9f2241;}.cls-2,.cls-3,.cls-4,.cls-5{stroke-miterlimit:10;}.cls-3,.cls-5,.cls-7{fill:none;}.cls-3,.cls-4,.cls-5,.cls-7{stroke:#fff;}.cls-5,.cls-7{stroke-width:0.75px;}.cls-7{stroke-miterlimit:1;}</style></defs><g id="Capa_2" data-name="Capa 2"><g id="Permisos"><rect class="cls-1" width="100" height="100" rx="12"/><path class="cls-2" d="M79,13.5H22.53c-4.47,0-8.06,3.08-8.06,6.84V61.39c0,3.78,3.61,6.84,8.06,6.84H79c4.43,0,8.06-3.08,8.06-6.84v-41C87.05,16.58,83.46,13.5,79,13.5Zm0,47.89H22.53V27.18H79Z"/><circle class="cls-3" cx="49.46" cy="44.49" r="10.09"/><path class="cls-4" d="M50.28,48.72h0a1.42,1.42,0,0,1-1.05-.8l-2.83-6.15a1.4,1.4,0,0,1,.69-1.87,1.42,1.42,0,0,1,1.87.69l2,4.27,8.81-9.24a1.41,1.41,0,0,1,2,2L51.52,48.3A1.44,1.44,0,0,1,50.28,48.72Z"/><rect class="cls-1" x="20.67" y="19.45" width="3.57" height="3.57"/><polygon class="cls-1" points="29.42 23.02 27.45 23.02 28.44 21.32 29.42 19.62 30.4 21.32 31.38 23.02 29.42 23.02"/><line class="cls-5" x1="49.17" y1="68.5" x2="49.17" y2="91.98"/><path class="cls-6" d="M47.76,91.9a1.41,1.41,0,1,0,1.41-1.41A1.41,1.41,0,0,0,47.76,91.9Z"/><path class="cls-6" d="M47.57,91.9a1.6,1.6,0,1,1,1.6,1.6,1.6,1.6,0,0,1-1.6-1.6Zm2.82,0a1.23,1.23,0,1,0-1.22,1.23,1.22,1.22,0,0,0,1.22-1.23Z"/><polyline class="cls-7" points="45.47 68.5 45.47 84.17 45.18 84.5 21.68 84.5"/><circle class="cls-6" cx="21.76" cy="84.5" r="1.41"/><path class="cls-6" d="M21.76,82.9a1.6,1.6,0,1,1-1.6,1.6,1.6,1.6,0,0,1,1.6-1.6Zm0,2.82a1.22,1.22,0,1,0-1.23-1.22,1.22,1.22,0,0,0,1.23,1.22Z"/><polyline class="cls-7" points="41.47 68.5 41.47 79.28 41.13 79.5 13.98 79.5"/><circle class="cls-6" cx="14.06" cy="79.5" r="1.41"/><path class="cls-6" d="M14.06,77.9a1.6,1.6,0,1,1-1.59,1.6,1.6,1.6,0,0,1,1.59-1.6Zm0,2.82a1.22,1.22,0,1,0-1.22-1.22,1.23,1.23,0,0,0,1.22,1.22Z"/><polyline class="cls-7" points="52.72 68.5 52.72 87.86 53.13 88.27 87.54 88.27"/><path class="cls-6" d="M87.46,89.68a1.41,1.41,0,1,0-1.41-1.41A1.41,1.41,0,0,0,87.46,89.68Z"/><path class="cls-6" d="M87.46,89.87a1.6,1.6,0,1,1,1.59-1.6,1.6,1.6,0,0,1-1.59,1.6Zm0-2.82a1.22,1.22,0,1,0,1.22,1.22,1.22,1.22,0,0,0-1.22-1.22Z"/><polyline class="cls-7" points="56.47 68.5 56.47 83.31 56.65 83.62 71.26 83.62"/><circle class="cls-6" cx="71.18" cy="83.62" r="1.41"/><path class="cls-6" d="M71.18,85.21a1.6,1.6,0,1,1,1.59-1.59,1.6,1.6,0,0,1-1.59,1.59Zm0-2.82a1.23,1.23,0,1,0,1.22,1.23,1.23,1.23,0,0,0-1.22-1.23Z"/></g></g></svg>